<?xml version="1.0" encoding="UTF-8"?>
<!DOCTYPE svg PUBLIC "-//W3C//DTD SVG 1.1//EN" "http://www.w3.org/Graphics/SVG/1.1/DTD/svg11.dtd">
<svg xmlns="http://www.w3.org/2000/svg" version="1.1" width="290px" height="290px" style="shape-rendering:geometricPrecision; text-rendering:geometricPrecision; image-rendering:optimizeQuality; fill-rule:evenodd; clip-rule:evenodd" xmlns:xlink="http://www.w3.org/1999/xlink">
<g><path style="opacity:1" fill="#172ff1" d="M -0.5,-0.5 C 96.1667,-0.5 192.833,-0.5 289.5,-0.5C 289.5,96.1667 289.5,192.833 289.5,289.5C 192.833,289.5 96.1667,289.5 -0.5,289.5C -0.5,192.833 -0.5,96.1667 -0.5,-0.5 Z"/></g>
<g><path style="opacity:1" fill="#fcfdfe" d="M 105.5,36.5 C 107.309,44.7755 108.142,53.4421 108,62.5C 130.167,82 152.333,101.5 174.5,121C 182.659,120.794 190.825,120.294 199,119.5C 201.833,119.833 204.667,120.167 207.5,120.5C 196.031,132.008 184.698,143.508 173.5,155C 197.398,185.275 221.898,215.109 247,244.5C 248.919,246.691 250.253,249.024 251,251.5C 219.592,225.547 188.092,199.714 156.5,174C 155.5,173.333 154.5,173.333 153.5,174C 142.586,185.15 131.586,196.316 120.5,207.5C 120.167,204.667 119.833,201.833 119.5,199C 120.294,190.825 120.794,182.659 121,174.5C 101.618,152.623 82.4511,130.623 63.5,108.5C 54.5,107.833 45.5,107.167 36.5,106.5C 59.5211,83.1458 82.5211,59.8125 105.5,36.5 Z"/></g>
</svg>
